<?xml version="1.0" encoding="UTF-8" standalone="no"?>
<!-- Created with Inkscape (http://www.inkscape.org/) -->

<svg
   width="200mm"
   height="200mm"
   viewBox="0 0 200 200"
   version="1.1"
   id="svg1"
   inkscape:version="1.4.2 (f4327f4, 2025-05-13)"
   sodipodi:docname="coug.svg"
   xmlns:inkscape="http://www.inkscape.org/namespaces/inkscape"
   xmlns:sodipodi="http://sodipodi.sourceforge.net/DTD/sodipodi-0.dtd"
   xmlns="http://www.w3.org/2000/svg"
   xmlns:svg="http://www.w3.org/2000/svg">
  <sodipodi:namedview
     id="namedview1"
     pagecolor="#ffffff"
     bordercolor="#000000"
     borderopacity="0.25"
     inkscape:showpageshadow="2"
     inkscape:pageopacity="0.0"
     inkscape:pagecheckerboard="true"
     inkscape:deskcolor="#d1d1d1"
     inkscape:document-units="mm"
     inkscape:zoom="0.35355339"
     inkscape:cx="165.46299"
     inkscape:cy="516.18795"
     inkscape:window-width="1920"
     inkscape:window-height="1094"
     inkscape:window-x="-11"
     inkscape:window-y="-11"
     inkscape:window-maximized="1"
     inkscape:current-layer="layer1" />
  <defs
     id="defs1">
    <clipPath
       clipPathUnits="userSpaceOnUse"
       id="clipPath9">
      <path
         d="M 0,800 H 800 V 0 H 0 Z"
         transform="translate(-439.45951,-541.11231)"
         id="path9" />
    </clipPath>
    <clipPath
       clipPathUnits="userSpaceOnUse"
       id="clipPath7">
      <path
         d="M 0,800 H 800 V 0 H 0 Z"
         transform="translate(-160.2544,-179.56841)"
         id="path7" />
    </clipPath>
    <clipPath
       clipPathUnits="userSpaceOnUse"
       id="clipPath5">
      <path
         d="M 0,800 H 800 V 0 H 0 Z"
         transform="translate(-609.53122,-424.88871)"
         id="path5" />
    </clipPath>
    <clipPath
       clipPathUnits="userSpaceOnUse"
       id="clipPath3">
      <path
         d="M 0,800 H 800 V 0 H 0 Z"
         transform="translate(-457.46241,-157.18751)"
         id="path3" />
    </clipPath>
  </defs>
  <g
     inkscape:label="Layer 1"
     inkscape:groupmode="layer"
     id="layer1">
    <path
       id="path2"
       d="M 0,0 C 0,0 28.31,12.086 43.825,58.891 57.496,30.368 53.924,1.041 53.924,1.041 41.389,-1.774 0,0 0,0"
       style="fill:#ffffff;fill-opacity:1;fill-rule:nonzero;stroke:none"
       transform="matrix(0.35277776,0,0,-0.35277776,122.91165,195.77844)"
       clip-path="url(#clipPath3)" />
    <path
       id="path4"
       d="m 0,0 c 0,0 17.265,-94.084 -43.896,-97.301 -59.01,-3.074 -86.799,85.665 -86.799,85.665 0,0 14.261,-173.41 96.992,-161.986 C 59.435,-160.779 0,0 0,0"
       style="fill:#ffffff;fill-opacity:1;fill-rule:nonzero;stroke:none"
       transform="matrix(0.35277776,0,0,-0.35277776,176.55814,101.3394)"
       clip-path="url(#clipPath5)" />
    <path
       id="path6"
       d="M 0,0 C 0.047,0.023 0.095,0.023 0.095,0.023 69.061,15.728 121.921,96.212 137.412,128.52 l 9.863,20.458 5.936,-21.901 c 0.284,-1.182 6.717,-25.354 6.717,-57.235 0,-3.548 -0.095,-7.167 -0.284,-10.833 23.793,-0.899 40.774,3.927 51.347,14.9 15.16,15.657 19.701,45.339 14.072,90.702 -2.791,21.711 -10.809,56.242 -17.928,86.728 -3.642,15.586 -7.071,30.321 -9.153,40.751 -13.292,66.649 3.217,108.038 19.394,131.003 2.578,3.618 5.346,7.048 8.278,10.264 -47.751,-16.035 -87.769,-41.01 -129.063,-82.258 l 29.043,-33.679 11.873,11.116 c 11.258,-41.839 3.169,-80.366 3.169,-80.366 -15.279,23.272 -33.301,42.146 -33.301,42.146 l 7.876,13.245 -26.181,30.415 -3.028,3.406 C 53.853,293.178 43.447,257.016 43.447,257.016 l 22.823,-20.908 13.292,-12.038 4.47,12.819 c 24.573,-45.954 2.129,-88.905 2.129,-88.905 -4.021,15.658 -20.199,38.812 -20.199,38.812 l 6.386,21.072 -33.986,30.747 C 3.027,128.235 -44.18,92.476 -44.18,92.476 c 0,0 51.062,9.2 79.514,18.754 0,0 -0.78,-58.181 -35.334,-111.23"
       style="fill:#ffffff;fill-opacity:1;fill-rule:nonzero;stroke:none"
       transform="matrix(0.35277776,0,0,-0.35277776,18.063271,187.88295)"
       clip-path="url(#clipPath7)" />
    <path
       id="path8"
       d="m 0,0 c 16.461,11.542 44.463,20.411 70.74,18.4 6.646,-0.497 12.275,1.254 5.109,5.038 C 56.194,33.797 10.382,30.273 -5.818,19.228 -31.764,1.537 -27.364,-29.99 -26.773,-30.747 -21.594,-21.712 -12.819,-8.964 0,0 m 236.415,36.683 -81.596,-3.454 c 0.048,-9.602 -1.23,-19.346 -4.352,-28.546 7.616,-33.301 2.318,-51.371 2.318,-51.371 -13.646,31.764 -24.029,40.586 -24.029,40.586 -74.95,33.277 -117.049,-41.981 -112.532,-90.536 3.666,-39.9 18.164,-92.854 29.446,-175.94 9.507,-69.912 -25.898,-100.139 -66.625,-107.068 -0.875,-0.119 -1.774,-0.285 -2.672,-0.473 -0.237,0 -0.426,0 -0.639,-0.048 -6.623,-0.852 -13.623,-1.206 -21.026,-1.04 -0.236,0.07 -0.544,0.07 -0.78,0.07 -0.828,0 -1.609,0.118 -2.436,0.118 -3.17,0.19 -6.292,0.521 -9.39,0.9 -31.692,4.375 -102.645,17.265 -175.94,19.039 43.116,25.164 76.842,68.753 95.669,99.618 1.087,-8.561 1.962,-18.992 1.962,-30.486 0,-5.724 -0.189,-11.755 -0.78,-17.905 l -0.709,-8.418 8.443,-0.71 c 33.726,-2.933 57.637,3.5 73.271,19.606 19.11,19.914 24.999,53.097 18.519,104.562 -2.791,22.562 -10.998,57.566 -18.164,88.431 -3.572,15.444 -6.954,30.107 -9.012,40.23 -12.132,60.806 2.366,97.726 16.675,117.971 11.139,15.847 26.583,27.483 43.517,33.064 0.284,0.048 0.568,0.118 0.875,0.166 l 27.861,85.474 H 33.04 L 14.332,88.384 c 4.328,0.757 8.728,1.442 13.174,2.128 l 24.053,75.731 h 8.656 L 44.463,92.901 c 24.905,3.193 51.914,5.676 81.857,7.875 4.848,-1.939 10.099,-7.544 14.711,-15.349 l 78.521,24.148 2.909,-8.467 -75.068,-29.114 c 0.591,-1.538 1.182,-3.146 1.655,-4.778 l 82.07,10.194 1.371,-8.799 -79.633,-15.893 c 0.284,-1.49 0.52,-2.98 0.781,-4.47 l 82.825,-2.673 z"
       style="fill:#ffffff;fill-opacity:1;fill-rule:nonzero;stroke:none"
       transform="matrix(0.35277776,0,0,-0.35277776,116.56063,60.338302)"
       clip-path="url(#clipPath9)" />
  </g>
</svg>
